<svg version="1.1" viewBox="0.0 0.0 192.0 192.0" fill="none" stroke="none" stroke-linecap="square" stroke-miterlimit="10" xmlns:xlink="http://www.w3.org/1999/xlink" xmlns="http://www.w3.org/2000/svg"><clipPath id="g1e1cb764be9_0_0.0"><path d="m0 0l192.0 0l0 192.0l-192.0 0l0 -192.0z" clip-rule="nonzero"/></clipPath><g clip-path="url(#g1e1cb764be9_0_0.0)"><path fill="#ffffff" d="m0 0l192.0 0l0 192.0l-192.0 0z" fill-rule="evenodd"/><path fill="#ad3433" fill-opacity="0.6013" d="m12.728347 103.185036l35.682415 0l8.086613 -35.409447l11.215225 49.115486l20.543304 -89.95538l16.51706 76.00525" fill-rule="evenodd"/><path stroke="#000000" stroke-width="12.0" stroke-linejoin="round" stroke-linecap="butt" d="m12.728347 103.185036l35.682415 0l8.086613 -35.409447l11.215225 49.115486l20.543304 -89.95538l16.51706 76.00525" fill-rule="evenodd"/><path fill="#1e4276" fill-opacity="0.4873" d="m104.64698 102.06693l14.070869 62.997368l21.267715 -93.12335l14.790024 30.05249l24.496063 0.13385773" fill-rule="evenodd"/><path stroke="#000000" stroke-width="12.0" stroke-linejoin="round" stroke-linecap="butt" d="m104.64698 102.06693l14.070869 62.997368l21.267715 -93.12335l14.790024 30.05249l24.496063 0.13385773" fill-rule="evenodd"/><path fill="#000000" fill-opacity="0.0" d="m104.279526 101.29527l14.6430435 63.769028l21.267723 -93.12335l14.790024 30.05249l24.173233 0" fill-rule="evenodd"/><path stroke="#1e4276" stroke-width="8.0" stroke-linejoin="round" stroke-linecap="butt" d="m104.279526 101.29527l14.6430435 63.769028l21.267723 -93.12335l14.790024 30.05249l24.173233 0" fill-rule="evenodd"/><path fill="#000000" fill-opacity="0.0" d="m12.729003 103.18525l35.682415 0l8.086613 -35.409447l11.215225 49.115486l20.543304 -89.95538l15.753281 72.17585" fill-rule="evenodd"/><path stroke="#ad3433" stroke-width="8.0" stroke-linejoin="round" stroke-linecap="butt" d="m12.729003 103.18525l35.682415 0l8.086613 -35.409447l11.215225 49.115486l20.543304 -89.95538l15.753281 72.17585" fill-rule="evenodd"/><path fill="#ffffff" d="m93.93014 101.80104l0 0c0 -5.7663727 4.674568 -10.440941 10.4409485 -10.440941l0 0c2.769104 0 5.4248047 1.1000214 7.3828583 3.0580826c1.9580612 1.9580536 3.0580826 4.6137466 3.0580826 7.3828583l0 0c0 5.7663803 -4.674568 10.4409485 -10.440941 10.4409485l0 0c-5.7663803 0 -10.4409485 -4.674568 -10.4409485 -10.4409485z" fill-rule="evenodd"/><path stroke="#000000" stroke-width="2.0" stroke-linejoin="round" stroke-linecap="butt" d="m93.93014 101.80104l0 0c0 -5.7663727 4.674568 -10.440941 10.4409485 -10.440941l0 0c2.769104 0 5.4248047 1.1000214 7.3828583 3.0580826c1.9580612 1.9580536 3.0580826 4.6137466 3.0580826 7.3828583l0 0c0 5.7663803 -4.674568 10.4409485 -10.440941 10.4409485l0 0c-5.7663803 0 -10.4409485 -4.674568 -10.4409485 -10.4409485z" fill-rule="evenodd"/></g></svg>